<?xml version="1.0" encoding="UTF-8" standalone="no"?>
<!-- Created with Inkscape (http://www.inkscape.org/) -->

<svg
   xmlns:dc="http://purl.org/dc/elements/1.1/"
   xmlns:cc="http://creativecommons.org/ns#"
   xmlns:rdf="http://www.w3.org/1999/02/22-rdf-syntax-ns#"
   xmlns:svg="http://www.w3.org/2000/svg"
   xmlns="http://www.w3.org/2000/svg"
   xmlns:sodipodi="http://sodipodi.sourceforge.net/DTD/sodipodi-0.dtd"
   xmlns:inkscape="http://www.inkscape.org/namespaces/inkscape"
   width="1460mm"
   height="340mm"
   viewBox="0 0 1460 340"
   version="1.1"
   id="svg4520"
   inkscape:version="0.92.2 (5c3e80d, 2017-08-06)"
   sodipodi:docname="uhriDotComLogo.svg">
  <defs
     id="defs4514" />
  <sodipodi:namedview
     id="base"
     pagecolor="#ffffff"
     bordercolor="#666666"
     borderopacity="1.0"
     inkscape:pageopacity="0.0"
     inkscape:pageshadow="2"
     inkscape:zoom="0.08122524"
     inkscape:cx="1795.408"
     inkscape:cy="560"
     inkscape:document-units="mm"
     inkscape:current-layer="layer1"
     showgrid="false"
     inkscape:window-width="1600"
     inkscape:window-height="837"
     inkscape:window-x="-8"
     inkscape:window-y="32"
     inkscape:window-maximized="1" />
  <metadata
     id="metadata4517">
    <rdf:RDF>
      <cc:Work
         rdf:about="">
        <dc:format>image/svg+xml</dc:format>
        <dc:type
           rdf:resource="http://purl.org/dc/dcmitype/StillImage" />
        <dc:title></dc:title>
      </cc:Work>
    </rdf:RDF>
  </metadata>
  <g
     inkscape:label="Layer 1"
     inkscape:groupmode="layer"
     id="layer1"
     transform="translate(0,43)">
    <path
       sodipodi:type="inkscape:offset"
       inkscape:radius="0"
       inkscape:original="M 0.40625 237.00391 C 0.18351 237.00391 0.00390625 237.197 0.00390625 237.4375 L 0.00390625 296.5625 C 0.00390625 296.803 0.18351 296.99609 0.40625 296.99609 L 49.59375 296.99609 C 49.81649 296.99609 49.996094 296.803 49.996094 296.5625 L 49.996094 237.4375 C 49.996094 237.197 49.81649 237.00391 49.59375 237.00391 L 0.40625 237.00391 z "
       style="opacity:0.98999999;fill:#ffcc00;fill-opacity:1;stroke:#bbb000;stroke-width:0.008;stroke-miterlimit:4;stroke-dasharray:none;stroke-dashoffset:0;stroke-opacity:1"
       id="rect5065"
       d="m 0.40625,237.00391 c -0.22274,0 -0.40234375,0.19309 -0.40234375,0.43359 v 59.125 c 0,0.2405 0.17960375,0.43359 0.40234375,0.43359 h 49.1875 c 0.22274,0 0.402344,-0.19309 0.402344,-0.43359 v -59.125 c 0,-0.2405 -0.179604,-0.43359 -0.402344,-0.43359 z" />
    <path
       sodipodi:type="inkscape:offset"
       inkscape:radius="0"
       inkscape:original="M 0.40625 167.00391 C 0.18351 167.00391 0.00390625 167.197 0.00390625 167.4375 L 0.00390625 226.5625 C 0.00390625 226.803 0.18351 226.99609 0.40625 226.99609 L 49.59375 226.99609 C 49.81649 226.99609 49.996094 226.803 49.996094 226.5625 L 49.996094 167.4375 C 49.996094 167.197 49.81649 167.00391 49.59375 167.00391 L 0.40625 167.00391 z "
       style="opacity:0.98999999;fill:#ffcc00;fill-opacity:1;stroke:#bbb000;stroke-width:0.008;stroke-miterlimit:4;stroke-dasharray:none;stroke-dashoffset:0;stroke-opacity:1"
       id="rect5065-4"
       d="m 0.40625,167.00391 c -0.22274,0 -0.40234375,0.19309 -0.40234375,0.43359 v 59.125 c 0,0.2405 0.17960375,0.43359 0.40234375,0.43359 h 49.1875 c 0.22274,0 0.402344,-0.19309 0.402344,-0.43359 v -59.125 c 0,-0.2405 -0.179604,-0.43359 -0.402344,-0.43359 z" />
    <path
       id="rect5065-45"
       style="opacity:0.98999999;fill:#ffcc00;fill-opacity:1;stroke:#bbb000;stroke-width:0.008;stroke-miterlimit:4;stroke-dasharray:none;stroke-dashoffset:0;stroke-opacity:1"
       d="m 0.406343,97.00382 c -0.22274,0 -0.402343,0.19309 -0.402343,0.43359 v 59.125 c 0,0.2405 0.179603,0.43359 0.402343,0.43359 h 49.187501 c 0.222739,0 0.402344,-0.19309 0.402344,-0.43359 v -59.125 c 0,-0.2405 -0.179605,-0.43359 -0.402344,-0.43359 z"
       inkscape:connector-curvature="0" />
    <path
       id="rect5065-8"
       style="opacity:0.98999999;fill:#ffcc00;fill-opacity:1;stroke:#bbb000;stroke-width:0.008;stroke-miterlimit:4;stroke-dasharray:none;stroke-dashoffset:0;stroke-opacity:1"
       d="m 60.406343,237.00382 c -0.22274,0 -0.402343,0.19309 -0.402343,0.43359 v 59.125 c 0,0.2405 0.179603,0.43359 0.402343,0.43359 h 49.187497 c 0.22274,0 0.40235,-0.19309 0.40235,-0.43359 v -59.125 c 0,-0.2405 -0.17961,-0.43359 -0.40235,-0.43359 z"
       inkscape:connector-curvature="0" />
    <path
       id="rect5065-8-9"
       style="opacity:0.98999999;fill:#ffcc00;fill-opacity:1;stroke:#bbb000;stroke-width:0.008;stroke-miterlimit:4;stroke-dasharray:none;stroke-dashoffset:0;stroke-opacity:1"
       d="m 120.40634,237.00382 c -0.22274,0 -0.40234,0.19309 -0.40234,0.43359 v 59.125 c 0,0.2405 0.1796,0.43359 0.40234,0.43359 h 49.1875 c 0.22274,0 0.40235,-0.19309 0.40235,-0.43359 v -59.125 c 0,-0.2405 -0.17961,-0.43359 -0.40235,-0.43359 z"
       inkscape:connector-curvature="0" />
    <path
       id="rect5065-8-5"
       style="opacity:0.98999999;fill:#ffcc00;fill-opacity:1;stroke:#bbb000;stroke-width:0.008;stroke-miterlimit:4;stroke-dasharray:none;stroke-dashoffset:0;stroke-opacity:1"
       d="m 120.40634,167.00382 c -0.22274,0 -0.40234,0.19309 -0.40234,0.43359 v 59.125 c 0,0.2405 0.1796,0.43359 0.40234,0.43359 h 49.1875 c 0.22274,0 0.40235,-0.19309 0.40235,-0.43359 v -59.125 c 0,-0.2405 -0.17961,-0.43359 -0.40235,-0.43359 z"
       inkscape:connector-curvature="0" />
    <path
       id="rect5065-8-2"
       style="opacity:0.98999999;fill:#ffcc00;fill-opacity:1;stroke:#bbb000;stroke-width:0.008;stroke-miterlimit:4;stroke-dasharray:none;stroke-dashoffset:0;stroke-opacity:1"
       d="m 120.40635,97.00382 c -0.22274,0 -0.40235,0.19309 -0.40235,0.43359 v 59.125 c 0,0.2405 0.17961,0.43359 0.40235,0.43359 h 49.1875 c 0.22274,0 0.40235,-0.19309 0.40235,-0.43359 v -59.125 c 0,-0.2405 -0.17961,-0.43359 -0.40235,-0.43359 z"
       inkscape:connector-curvature="0" />
    <path
       id="rect5065-8-9-6"
       style="opacity:0.98999999;fill:#ffcc00;fill-opacity:1;stroke:#bbb000;stroke-width:0.008;stroke-miterlimit:4;stroke-dasharray:none;stroke-dashoffset:0;stroke-opacity:1"
       d="m 210.40634,237.00382 c -0.22274,0 -0.40234,0.19309 -0.40234,0.43359 v 59.125 c 0,0.2405 0.1796,0.43359 0.40234,0.43359 h 49.1875 c 0.22274,0 0.40235,-0.19309 0.40235,-0.43359 v -59.125 c 0,-0.2405 -0.17961,-0.43359 -0.40235,-0.43359 z"
       inkscape:connector-curvature="0" />
    <path
       id="rect5065-8-5-3"
       style="opacity:0.98999999;fill:#ffcc00;fill-opacity:1;stroke:#bbb000;stroke-width:0.008;stroke-miterlimit:4;stroke-dasharray:none;stroke-dashoffset:0;stroke-opacity:1"
       d="m 210.40634,167.00382 c -0.22274,0 -0.40234,0.19309 -0.40234,0.43359 v 59.125 c 0,0.2405 0.1796,0.43359 0.40234,0.43359 h 49.1875 c 0.22274,0 0.40235,-0.19309 0.40235,-0.43359 v -59.125 c 0,-0.2405 -0.17961,-0.43359 -0.40235,-0.43359 z"
       inkscape:connector-curvature="0" />
    <path
       id="rect5065-8-2-3"
       style="opacity:0.98999999;fill:#ffcc00;fill-opacity:1;stroke:#bbb000;stroke-width:0.008;stroke-miterlimit:4;stroke-dasharray:none;stroke-dashoffset:0;stroke-opacity:1"
       d="m 210.40635,97.00382 c -0.22274,0 -0.40235,0.19309 -0.40235,0.43359 v 59.125 c 0,0.2405 0.17961,0.43359 0.40235,0.43359 h 49.1875 c 0.22274,0 0.40235,-0.19309 0.40235,-0.43359 v -59.125 c 0,-0.2405 -0.17961,-0.43359 -0.40235,-0.43359 z"
       inkscape:connector-curvature="0" />
    <path
       id="rect5065-8-5-3-0"
       style="opacity:0.98999999;fill:#ffcc00;fill-opacity:1;stroke:#bbb000;stroke-width:0.008;stroke-miterlimit:4;stroke-dasharray:none;stroke-dashoffset:0;stroke-opacity:1"
       d="m 210.40634,27.00382 c -0.22274,0 -0.40234,0.19309 -0.40234,0.43359 v 59.125 c 0,0.2405 0.1796,0.43359 0.40234,0.43359 h 49.1875 c 0.22274,0 0.40235,-0.19309 0.40235,-0.43359 v -59.125 c 0,-0.2405 -0.17961,-0.43359 -0.40235,-0.43359 z"
       inkscape:connector-curvature="0" />
    <path
       id="rect5065-8-2-3-8"
       style="opacity:0.98999999;fill:#ffcc00;fill-opacity:1;stroke:#bbb000;stroke-width:0.008;stroke-miterlimit:4;stroke-dasharray:none;stroke-dashoffset:0;stroke-opacity:1"
       d="m 210.40635,-42.99618 c -0.22274,0 -0.40235,0.19309 -0.40235,0.43359 v 59.125 c 0,0.2405 0.17961,0.43359 0.40235,0.43359 h 49.1875 c 0.22274,0 0.40235,-0.19309 0.40235,-0.43359 v -59.125 c 0,-0.2405 -0.17961,-0.43359 -0.40235,-0.43359 z"
       inkscape:connector-curvature="0" />
    <path
       id="rect5065-8-2-3-0"
       style="opacity:0.98999999;fill:#ffcc00;fill-opacity:1;stroke:#bbb000;stroke-width:0.008;stroke-miterlimit:4;stroke-dasharray:none;stroke-dashoffset:0;stroke-opacity:1"
       d="m 270.40635,97.00382 c -0.22274,0 -0.40235,0.19309 -0.40235,0.43359 v 59.125 c 0,0.2405 0.17961,0.43359 0.40235,0.43359 h 49.18749 c 0.22275,0 0.40236,-0.19309 0.40236,-0.43359 v -59.125 c 0,-0.2405 -0.17961,-0.43359 -0.40236,-0.43359 z"
       inkscape:connector-curvature="0" />
    <path
       id="rect5065-8-9-9"
       style="opacity:0.98999999;fill:#ffcc00;fill-opacity:1;stroke:#bbb000;stroke-width:0.008;stroke-miterlimit:4;stroke-dasharray:none;stroke-dashoffset:0;stroke-opacity:1"
       d="m 330.40634,237.00382 c -0.22274,0 -0.40234,0.19309 -0.40234,0.43359 v 59.125 c 0,0.2405 0.1796,0.43359 0.40234,0.43359 h 49.1875 c 0.22274,0 0.40235,-0.19309 0.40235,-0.43359 v -59.125 c 0,-0.2405 -0.17961,-0.43359 -0.40235,-0.43359 z"
       inkscape:connector-curvature="0" />
    <path
       id="rect5065-8-5-5"
       style="opacity:0.98999999;fill:#ffcc00;fill-opacity:1;stroke:#bbb000;stroke-width:0.008;stroke-miterlimit:4;stroke-dasharray:none;stroke-dashoffset:0;stroke-opacity:1"
       d="m 330.40634,167.00382 c -0.22274,0 -0.40234,0.19309 -0.40234,0.4336 v 59.12499 c 0,0.2405 0.1796,0.43359 0.40234,0.43359 h 49.1875 c 0.22274,0 0.40235,-0.19309 0.40235,-0.43359 v -59.12499 c 0,-0.24051 -0.17961,-0.4336 -0.40235,-0.4336 z"
       inkscape:connector-curvature="0" />
    <path
       id="rect5065-8-2-6"
       style="opacity:0.98999999;fill:#ffcc00;fill-opacity:1;stroke:#bbb000;stroke-width:0.008;stroke-miterlimit:4;stroke-dasharray:none;stroke-dashoffset:0;stroke-opacity:1"
       d="m 330.40635,97.00382 c -0.22274,0 -0.40235,0.19309 -0.40235,0.43359 v 59.125 c 0,0.2405 0.17961,0.43359 0.40235,0.43359 h 49.1875 c 0.22274,0 0.40235,-0.19309 0.40235,-0.43359 v -59.125 c 0,-0.2405 -0.17961,-0.43359 -0.40235,-0.43359 z"
       inkscape:connector-curvature="0" />
    <path
       id="rect5065-8-9-6-3"
       style="opacity:0.98999999;fill:#ffcc00;fill-opacity:1;stroke:#bbb000;stroke-width:0.008;stroke-miterlimit:4;stroke-dasharray:none;stroke-dashoffset:0;stroke-opacity:1"
       d="m 420.40634,237.00382 c -0.22274,0 -0.40234,0.19309 -0.40234,0.43359 v 59.125 c 0,0.2405 0.1796,0.43359 0.40234,0.43359 h 49.1875 c 0.22274,0 0.40235,-0.19309 0.40235,-0.43359 v -59.125 c 0,-0.2405 -0.17961,-0.43359 -0.40235,-0.43359 z"
       inkscape:connector-curvature="0" />
    <path
       id="rect5065-8-5-3-1"
       style="opacity:0.98999999;fill:#ffcc00;fill-opacity:1;stroke:#bbb000;stroke-width:0.008;stroke-miterlimit:4;stroke-dasharray:none;stroke-dashoffset:0;stroke-opacity:1"
       d="m 420.40634,167.00382 c -0.22274,0 -0.40234,0.19309 -0.40234,0.43359 v 59.125 c 0,0.2405 0.1796,0.43359 0.40234,0.43359 h 49.1875 c 0.22274,0 0.40235,-0.19309 0.40235,-0.43359 v -59.125 c 0,-0.2405 -0.17961,-0.43359 -0.40235,-0.43359 z"
       inkscape:connector-curvature="0" />
    <path
       id="rect5065-8-2-3-6"
       style="opacity:0.98999999;fill:#ffcc00;fill-opacity:1;stroke:#bbb000;stroke-width:0.008;stroke-miterlimit:4;stroke-dasharray:none;stroke-dashoffset:0;stroke-opacity:1"
       d="m 420.40635,97.003815 c -0.22274,0 -0.40235,0.19309 -0.40235,0.43359 V 156.5624 c 0,0.24051 0.17961,0.4336 0.40235,0.4336 h 49.18749 c 0.22275,0 0.40236,-0.19309 0.40236,-0.4336 V 97.437405 c 0,-0.2405 -0.17961,-0.43359 -0.40236,-0.43359 z"
       inkscape:connector-curvature="0" />
    <path
       id="rect5065-8-2-3-0-4"
       style="opacity:0.98999999;fill:#ffcc00;fill-opacity:1;stroke:#bbb000;stroke-width:0.008;stroke-miterlimit:4;stroke-dasharray:none;stroke-dashoffset:0;stroke-opacity:1"
       d="m 480.40635,97.003815 c -0.22274,0 -0.40235,0.19309 -0.40235,0.43359 V 156.5624 c 0,0.24051 0.17961,0.4336 0.40235,0.4336 h 49.18749 c 0.22275,0 0.40236,-0.19309 0.40236,-0.4336 V 97.437405 c 0,-0.2405 -0.17961,-0.43359 -0.40236,-0.43359 z"
       inkscape:connector-curvature="0" />
    <path
       id="rect5065-8-9-6-6"
       style="opacity:0.98999999;fill:#ffcc00;fill-opacity:1;stroke:#bbb000;stroke-width:0.008;stroke-miterlimit:4;stroke-dasharray:none;stroke-dashoffset:0;stroke-opacity:1"
       d="m 570.40634,237.00382 c -0.22274,0 -0.40234,0.19309 -0.40234,0.4336 v 59.12501 c 0,0.2405 0.1796,0.43357 0.40234,0.43357 h 49.1875 c 0.22274,0 0.40235,-0.19307 0.40235,-0.43357 v -59.12501 c 0,-0.24051 -0.17961,-0.4336 -0.40235,-0.4336 z"
       inkscape:connector-curvature="0" />
    <path
       id="rect5065-8-5-3-5"
       style="opacity:0.98999999;fill:#ffcc00;fill-opacity:1;stroke:#bbb000;stroke-width:0.008;stroke-miterlimit:4;stroke-dasharray:none;stroke-dashoffset:0;stroke-opacity:1"
       d="m 570.40634,167.00383 c -0.22274,0 -0.40234,0.19309 -0.40234,0.43359 v 59.12499 c 0,0.24051 0.1796,0.4336 0.40234,0.4336 h 49.1875 c 0.22274,0 0.40235,-0.19309 0.40235,-0.4336 v -59.12499 c 0,-0.2405 -0.17961,-0.43359 -0.40235,-0.43359 z"
       inkscape:connector-curvature="0" />
    <path
       id="rect5065-8-2-3-7"
       style="opacity:0.98999999;fill:#ffcc00;fill-opacity:1;stroke:#bbb000;stroke-width:0.008;stroke-miterlimit:4;stroke-dasharray:none;stroke-dashoffset:0;stroke-opacity:1"
       d="m 570.40635,97.003832 c -0.22274,0 -0.40235,0.19309 -0.40235,0.43359 v 59.124998 c 0,0.2405 0.17961,0.43359 0.40235,0.43359 h 49.1875 c 0.22274,0 0.40235,-0.19309 0.40235,-0.43359 V 97.437422 c 0,-0.2405 -0.17961,-0.43359 -0.40235,-0.43359 z"
       inkscape:connector-curvature="0" />
    <path
       id="rect5065-8-5-3-0-3"
       style="opacity:0.98999999;fill:#ffcc00;fill-opacity:1;stroke:#bbb000;stroke-width:0.008;stroke-miterlimit:4;stroke-dasharray:none;stroke-dashoffset:0;stroke-opacity:1"
       d="m 660.40634,237.00382 c -0.22274,0 -0.40234,0.19309 -0.40234,0.43359 v 59.125 c 0,0.2405 0.1796,0.43359 0.40234,0.43359 h 49.1875 c 0.22274,0 0.40235,-0.19309 0.40235,-0.43359 v -59.125 c 0,-0.2405 -0.17961,-0.43359 -0.40235,-0.43359 z"
       inkscape:connector-curvature="0" />
    <path
       id="rect5065-8-2-3-8-0"
       style="opacity:0.98999999;fill:#ffcc00;fill-opacity:1;stroke:#bbb000;stroke-width:0.008;stroke-miterlimit:4;stroke-dasharray:none;stroke-dashoffset:0;stroke-opacity:1"
       d="m 570.40635,-42.99617 c -0.22274,0 -0.40235,0.19309 -0.40235,0.43359 v 59.125002 c 0,0.240501 0.17961,0.433591 0.40235,0.433591 h 49.1875 c 0.22274,0 0.40235,-0.19309 0.40235,-0.433591 V -42.56258 c 0,-0.2405 -0.17961,-0.43359 -0.40235,-0.43359 z"
       inkscape:connector-curvature="0" />
    <path
       transform="translate(750.00009,-9.000019e-5)"
       sodipodi:type="inkscape:offset"
       inkscape:radius="0"
       inkscape:original="M 0.40625 237.00391 C 0.18351 237.00391 0.00390625 237.197 0.00390625 237.4375 L 0.00390625 296.5625 C 0.00390625 296.803 0.18351 296.99609 0.40625 296.99609 L 49.59375 296.99609 C 49.81649 296.99609 49.996094 296.803 49.996094 296.5625 L 49.996094 237.4375 C 49.996094 237.197 49.81649 237.00391 49.59375 237.00391 L 0.40625 237.00391 z "
       style="opacity:0.98999999;fill:#ffcc00;fill-opacity:1;stroke:#bbb000;stroke-width:0.008;stroke-miterlimit:4;stroke-dasharray:none;stroke-dashoffset:0;stroke-opacity:1"
       id="rect5065-48"
       d="m 0.40625,237.00391 c -0.22274,0 -0.40234375,0.19309 -0.40234375,0.43359 v 59.125 c 0,0.2405 0.17960375,0.43359 0.40234375,0.43359 h 49.1875 c 0.22274,0 0.402344,-0.19309 0.402344,-0.43359 v -59.125 c 0,-0.2405 -0.179604,-0.43359 -0.402344,-0.43359 z" />
    <path
       transform="translate(750.00009,-9.000019e-5)"
       sodipodi:type="inkscape:offset"
       inkscape:radius="0"
       inkscape:original="M 0.40625 167.00391 C 0.18351 167.00391 0.00390625 167.197 0.00390625 167.4375 L 0.00390625 226.5625 C 0.00390625 226.803 0.18351 226.99609 0.40625 226.99609 L 49.59375 226.99609 C 49.81649 226.99609 49.996094 226.803 49.996094 226.5625 L 49.996094 167.4375 C 49.996094 167.197 49.81649 167.00391 49.59375 167.00391 L 0.40625 167.00391 z "
       style="opacity:0.98999999;fill:#ffcc00;fill-opacity:1;stroke:#bbb000;stroke-width:0.008;stroke-miterlimit:4;stroke-dasharray:none;stroke-dashoffset:0;stroke-opacity:1"
       id="rect5065-4-1"
       d="m 0.40625,167.00391 c -0.22274,0 -0.40234375,0.19309 -0.40234375,0.43359 v 59.125 c 0,0.2405 0.17960375,0.43359 0.40234375,0.43359 h 49.1875 c 0.22274,0 0.402344,-0.19309 0.402344,-0.43359 v -59.125 c 0,-0.2405 -0.179604,-0.43359 -0.402344,-0.43359 z" />
    <path
       id="rect5065-45-1"
       style="opacity:0.98999999;fill:#ffcc00;fill-opacity:1;stroke:#bbb000;stroke-width:0.008;stroke-miterlimit:4;stroke-dasharray:none;stroke-dashoffset:0;stroke-opacity:1"
       d="m 750.40644,97.00373 c -0.22274,0 -0.40235,0.19309 -0.40235,0.43359 v 59.125 c 0,0.2405 0.17961,0.43359 0.40235,0.43359 h 49.1875 c 0.22274,0 0.40234,-0.19309 0.40234,-0.43359 v -59.125 c 0,-0.2405 -0.1796,-0.43359 -0.40234,-0.43359 z"
       inkscape:connector-curvature="0" />
    <path
       id="rect5065-8-6"
       style="opacity:0.98999999;fill:#ffcc00;fill-opacity:1;stroke:#bbb000;stroke-width:0.008;stroke-miterlimit:4;stroke-dasharray:none;stroke-dashoffset:0;stroke-opacity:1"
       d="m 810.40644,237.00373 c -0.22274,0 -0.40234,0.19309 -0.40234,0.43359 v 59.125 c 0,0.2405 0.1796,0.43359 0.40234,0.43359 h 49.1875 c 0.22274,0 0.40234,-0.19309 0.40234,-0.43359 v -59.125 c 0,-0.2405 -0.1796,-0.43359 -0.40234,-0.43359 z"
       inkscape:connector-curvature="0" />
    <path
       id="rect5065-8-9-60"
       style="opacity:0.98999999;fill:#ffcc00;fill-opacity:1;stroke:#bbb000;stroke-width:0.008;stroke-miterlimit:4;stroke-dasharray:none;stroke-dashoffset:0;stroke-opacity:1"
       d="m 870.40644,237.00373 c -0.22274,0 -0.40235,0.19309 -0.40235,0.43359 v 59.125 c 0,0.2405 0.17961,0.43359 0.40235,0.43359 h 49.18749 c 0.22275,0 0.40236,-0.19309 0.40236,-0.43359 v -59.125 c 0,-0.2405 -0.17961,-0.43359 -0.40236,-0.43359 z"
       inkscape:connector-curvature="0" />
    <path
       id="rect5065-8-5-8"
       style="opacity:0.98999999;fill:#ffcc00;fill-opacity:1;stroke:#bbb000;stroke-width:0.008;stroke-miterlimit:4;stroke-dasharray:none;stroke-dashoffset:0;stroke-opacity:1"
       d="m 810.40635,97.00382 c -0.22274,0 -0.40235,0.19309 -0.40235,0.43359 v 59.125 c 0,0.2405 0.17961,0.43359 0.40235,0.43359 h 49.18749 c 0.22275,0 0.40236,-0.19309 0.40236,-0.43359 v -59.125 c 0,-0.2405 -0.17961,-0.43359 -0.40236,-0.43359 z"
       inkscape:connector-curvature="0" />
    <path
       id="rect5065-8-2-9"
       style="opacity:0.98999999;fill:#ffcc00;fill-opacity:1;stroke:#bbb000;stroke-width:0.008;stroke-miterlimit:4;stroke-dasharray:none;stroke-dashoffset:0;stroke-opacity:1"
       d="m 870.40645,97.00373 c -0.22274,0 -0.40236,0.19309 -0.40236,0.43359 v 59.125 c 0,0.2405 0.17962,0.43359 0.40236,0.43359 h 49.1875 c 0.22273,0 0.40234,-0.19309 0.40234,-0.43359 v -59.125 c 0,-0.2405 -0.17961,-0.43359 -0.40234,-0.43359 z"
       inkscape:connector-curvature="0" />
    <path
       transform="translate(960.00009,-9.000019e-5)"
       sodipodi:type="inkscape:offset"
       inkscape:radius="0"
       inkscape:original="M 0.40625 237.00391 C 0.18351 237.00391 0.00390625 237.197 0.00390625 237.4375 L 0.00390625 296.5625 C 0.00390625 296.803 0.18351 296.99609 0.40625 296.99609 L 49.59375 296.99609 C 49.81649 296.99609 49.996094 296.803 49.996094 296.5625 L 49.996094 237.4375 C 49.996094 237.197 49.81649 237.00391 49.59375 237.00391 L 0.40625 237.00391 z "
       style="opacity:0.98999999;fill:#ffcc00;fill-opacity:1;stroke:#bbb000;stroke-width:0.008;stroke-miterlimit:4;stroke-dasharray:none;stroke-dashoffset:0;stroke-opacity:1"
       id="rect5065-48-0"
       d="m 0.40625,237.00391 c -0.22274,0 -0.40234375,0.19309 -0.40234375,0.43359 v 59.125 c 0,0.2405 0.17960375,0.43359 0.40234375,0.43359 h 49.1875 c 0.22274,0 0.402344,-0.19309 0.402344,-0.43359 v -59.125 c 0,-0.2405 -0.179604,-0.43359 -0.402344,-0.43359 z" />
    <path
       transform="translate(960.00009,-9.000019e-5)"
       sodipodi:type="inkscape:offset"
       inkscape:radius="0"
       inkscape:original="M 0.40625 167.00391 C 0.18351 167.00391 0.00390625 167.197 0.00390625 167.4375 L 0.00390625 226.5625 C 0.00390625 226.803 0.18351 226.99609 0.40625 226.99609 L 49.59375 226.99609 C 49.81649 226.99609 49.996094 226.803 49.996094 226.5625 L 49.996094 167.4375 C 49.996094 167.197 49.81649 167.00391 49.59375 167.00391 L 0.40625 167.00391 z "
       style="opacity:0.98999999;fill:#ffcc00;fill-opacity:1;stroke:#bbb000;stroke-width:0.008;stroke-miterlimit:4;stroke-dasharray:none;stroke-dashoffset:0;stroke-opacity:1"
       id="rect5065-4-1-6"
       d="m 0.40625,167.00391 c -0.22274,0 -0.40234375,0.19309 -0.40234375,0.43359 v 59.125 c 0,0.2405 0.17960375,0.43359 0.40234375,0.43359 h 49.1875 c 0.22274,0 0.402344,-0.19309 0.402344,-0.43359 v -59.125 c 0,-0.2405 -0.179604,-0.43359 -0.402344,-0.43359 z" />
    <path
       id="rect5065-45-1-7"
       style="opacity:0.98999999;fill:#ffcc00;fill-opacity:1;stroke:#bbb000;stroke-width:0.008;stroke-miterlimit:4;stroke-dasharray:none;stroke-dashoffset:0;stroke-opacity:1"
       d="m 960.40645,97.00374 c -0.22274,0 -0.40235,0.19309 -0.40235,0.43359 v 59.125 c 0,0.2405 0.17961,0.43359 0.40235,0.43359 h 49.18755 c 0.2227,0 0.4023,-0.19309 0.4023,-0.43359 v -59.125 c 0,-0.2405 -0.1796,-0.43359 -0.4023,-0.43359 z"
       inkscape:connector-curvature="0" />
    <path
       id="rect5065-8-6-4"
       style="opacity:0.98999999;fill:#ffcc00;fill-opacity:1;stroke:#bbb000;stroke-width:0.008;stroke-miterlimit:4;stroke-dasharray:none;stroke-dashoffset:0;stroke-opacity:1"
       d="m 1020.4065,237.00374 c -0.2228,0 -0.4024,0.19309 -0.4024,0.43359 v 59.125 c 0,0.2405 0.1796,0.43359 0.4024,0.43359 h 49.1875 c 0.2227,0 0.4023,-0.19309 0.4023,-0.43359 v -59.125 c 0,-0.2405 -0.1796,-0.43359 -0.4023,-0.43359 z"
       inkscape:connector-curvature="0" />
    <path
       id="rect5065-8-9-60-0"
       style="opacity:0.98999999;fill:#ffcc00;fill-opacity:1;stroke:#bbb000;stroke-width:0.008;stroke-miterlimit:4;stroke-dasharray:none;stroke-dashoffset:0;stroke-opacity:1"
       d="m 1080.4065,237.00374 c -0.2228,0 -0.4024,0.19309 -0.4024,0.43359 v 59.125 c 0,0.2405 0.1796,0.43359 0.4024,0.43359 h 49.1874 c 0.2228,0 0.4024,-0.19309 0.4024,-0.43359 v -59.125 c 0,-0.2405 -0.1796,-0.43359 -0.4024,-0.43359 z"
       inkscape:connector-curvature="0" />
    <path
       id="rect5065-8-5-8-2"
       style="opacity:0.98999999;fill:#ffcc00;fill-opacity:1;stroke:#bbb000;stroke-width:0.008;stroke-miterlimit:4;stroke-dasharray:none;stroke-dashoffset:0;stroke-opacity:1"
       d="m 1020.4064,97.00383 c -0.2228,0 -0.4024,0.19309 -0.4024,0.43359 v 59.125 c 0,0.2405 0.1796,0.43359 0.4024,0.43359 h 49.1875 c 0.2227,0 0.4023,-0.19309 0.4023,-0.43359 v -59.125 c 0,-0.2405 -0.1796,-0.43359 -0.4023,-0.43359 z"
       inkscape:connector-curvature="0" />
    <path
       id="rect5065-8-2-9-2"
       style="opacity:0.98999999;fill:#ffcc00;fill-opacity:1;stroke:#bbb000;stroke-width:0.008;stroke-miterlimit:4;stroke-dasharray:none;stroke-dashoffset:0;stroke-opacity:1"
       d="m 1080.4065,97.00374 c -0.2228,0 -0.4024,0.19309 -0.4024,0.43359 v 59.125 c 0,0.2405 0.1796,0.43359 0.4024,0.43359 h 49.1874 c 0.2228,0 0.4024,-0.19309 0.4024,-0.43359 v -59.125 c 0,-0.2405 -0.1796,-0.43359 -0.4024,-0.43359 z"
       inkscape:connector-curvature="0" />
    <path
       transform="translate(1080.0001,-9.000019e-5)"
       sodipodi:type="inkscape:offset"
       inkscape:radius="0"
       inkscape:original="M 0.40625 167.00391 C 0.18351 167.00391 0.00390625 167.197 0.00390625 167.4375 L 0.00390625 226.5625 C 0.00390625 226.803 0.18351 226.99609 0.40625 226.99609 L 49.59375 226.99609 C 49.81649 226.99609 49.996094 226.803 49.996094 226.5625 L 49.996094 167.4375 C 49.996094 167.197 49.81649 167.00391 49.59375 167.00391 L 0.40625 167.00391 z "
       style="opacity:0.98999999;fill:#ffcc00;fill-opacity:1;stroke:#bbb000;stroke-width:0.008;stroke-miterlimit:4;stroke-dasharray:none;stroke-dashoffset:0;stroke-opacity:1"
       id="rect5065-4-1-6-4"
       d="m 0.40625,167.00391 c -0.22274,0 -0.40234375,0.19309 -0.40234375,0.43359 v 59.125 c 0,0.2405 0.17960375,0.43359 0.40234375,0.43359 h 49.1875 c 0.22274,0 0.402344,-0.19309 0.402344,-0.43359 v -59.125 c 0,-0.2405 -0.179604,-0.43359 -0.402344,-0.43359 z" />
    <path
       transform="translate(1170.0001,-9.000019e-5)"
       sodipodi:type="inkscape:offset"
       inkscape:radius="0"
       inkscape:original="M 0.40625 237.00391 C 0.18351 237.00391 0.00390625 237.197 0.00390625 237.4375 L 0.00390625 296.5625 C 0.00390625 296.803 0.18351 296.99609 0.40625 296.99609 L 49.59375 296.99609 C 49.81649 296.99609 49.996094 296.803 49.996094 296.5625 L 49.996094 237.4375 C 49.996094 237.197 49.81649 237.00391 49.59375 237.00391 L 0.40625 237.00391 z "
       style="opacity:0.98999999;fill:#ffcc00;fill-opacity:1;stroke:#bbb000;stroke-width:0.008;stroke-miterlimit:4;stroke-dasharray:none;stroke-dashoffset:0;stroke-opacity:1"
       id="rect5065-48-0-9"
       d="m 0.40625,237.00391 c -0.22274,0 -0.40234375,0.19309 -0.40234375,0.43359 v 59.125 c 0,0.2405 0.17960375,0.43359 0.40234375,0.43359 h 49.1875 c 0.22274,0 0.402344,-0.19309 0.402344,-0.43359 v -59.125 c 0,-0.2405 -0.179604,-0.43359 -0.402344,-0.43359 z" />
    <path
       transform="translate(1170.0001,-9.000019e-5)"
       sodipodi:type="inkscape:offset"
       inkscape:radius="0"
       inkscape:original="M 0.40625 167.00391 C 0.18351 167.00391 0.00390625 167.197 0.00390625 167.4375 L 0.00390625 226.5625 C 0.00390625 226.803 0.18351 226.99609 0.40625 226.99609 L 49.59375 226.99609 C 49.81649 226.99609 49.996094 226.803 49.996094 226.5625 L 49.996094 167.4375 C 49.996094 167.197 49.81649 167.00391 49.59375 167.00391 L 0.40625 167.00391 z "
       style="opacity:0.98999999;fill:#ffcc00;fill-opacity:1;stroke:#bbb000;stroke-width:0.008;stroke-miterlimit:4;stroke-dasharray:none;stroke-dashoffset:0;stroke-opacity:1"
       id="rect5065-4-1-6-40"
       d="m 0.40625,167.00391 c -0.22274,0 -0.40234375,0.19309 -0.40234375,0.43359 v 59.125 c 0,0.2405 0.17960375,0.43359 0.40234375,0.43359 h 49.1875 c 0.22274,0 0.402344,-0.19309 0.402344,-0.43359 v -59.125 c 0,-0.2405 -0.179604,-0.43359 -0.402344,-0.43359 z" />
    <path
       id="rect5065-45-1-7-6"
       style="opacity:0.98999999;fill:#ffcc00;fill-opacity:1;stroke:#bbb000;stroke-width:0.008;stroke-miterlimit:4;stroke-dasharray:none;stroke-dashoffset:0;stroke-opacity:1"
       d="m 1170.4065,97.003737 c -0.2228,0 -0.4024,0.19309 -0.4024,0.43359 v 59.125003 c 0,0.2405 0.1796,0.43359 0.4024,0.43359 h 49.1875 c 0.2227,0 0.4023,-0.19309 0.4023,-0.43359 V 97.437327 c 0,-0.2405 -0.1796,-0.43359 -0.4023,-0.43359 z"
       inkscape:connector-curvature="0" />
    <path
       id="rect5065-8-5-8-2-1"
       style="opacity:0.98999999;fill:#ffcc00;fill-opacity:1;stroke:#bbb000;stroke-width:0.008;stroke-miterlimit:4;stroke-dasharray:none;stroke-dashoffset:0;stroke-opacity:1"
       d="m 1230.4064,97.003827 c -0.2228,0 -0.4024,0.19309 -0.4024,0.43359 v 59.125003 c 0,0.2405 0.1796,0.43359 0.4024,0.43359 h 49.1875 c 0.2227,0 0.4023,-0.19309 0.4023,-0.43359 V 97.437417 c 0,-0.2405 -0.1796,-0.43359 -0.4023,-0.43359 z"
       inkscape:connector-curvature="0" />
    <path
       transform="translate(1290.0001,-9.000019e-5)"
       sodipodi:type="inkscape:offset"
       inkscape:radius="0"
       inkscape:original="M 0.40625 237.00391 C 0.18351 237.00391 0.00390625 237.197 0.00390625 237.4375 L 0.00390625 296.5625 C 0.00390625 296.803 0.18351 296.99609 0.40625 296.99609 L 49.59375 296.99609 C 49.81649 296.99609 49.996094 296.803 49.996094 296.5625 L 49.996094 237.4375 C 49.996094 237.197 49.81649 237.00391 49.59375 237.00391 L 0.40625 237.00391 z "
       style="opacity:0.98999999;fill:#ffcc00;fill-opacity:1;stroke:#bbb000;stroke-width:0.008;stroke-miterlimit:4;stroke-dasharray:none;stroke-dashoffset:0;stroke-opacity:1"
       id="rect5065-48-0-0"
       d="m 0.40625,237.00391 c -0.22274,0 -0.40234375,0.19309 -0.40234375,0.43359 v 59.125 c 0,0.2405 0.17960375,0.43359 0.40234375,0.43359 h 49.1875 c 0.22274,0 0.402344,-0.19309 0.402344,-0.43359 v -59.125 c 0,-0.2405 -0.179604,-0.43359 -0.402344,-0.43359 z" />
    <path
       transform="translate(1290.0001,-9.000019e-5)"
       sodipodi:type="inkscape:offset"
       inkscape:radius="0"
       inkscape:original="M 0.40625 167.00391 C 0.18351 167.00391 0.00390625 167.197 0.00390625 167.4375 L 0.00390625 226.5625 C 0.00390625 226.803 0.18351 226.99609 0.40625 226.99609 L 49.59375 226.99609 C 49.81649 226.99609 49.996094 226.803 49.996094 226.5625 L 49.996094 167.4375 C 49.996094 167.197 49.81649 167.00391 49.59375 167.00391 L 0.40625 167.00391 z "
       style="opacity:0.98999999;fill:#ffcc00;fill-opacity:1;stroke:#bbb000;stroke-width:0.008;stroke-miterlimit:4;stroke-dasharray:none;stroke-dashoffset:0;stroke-opacity:1"
       id="rect5065-4-1-6-8"
       d="m 0.40625,167.00391 c -0.22274,0 -0.40234375,0.19309 -0.40234375,0.43359 v 59.125 c 0,0.2405 0.17960375,0.43359 0.40234375,0.43359 h 49.1875 c 0.22274,0 0.402344,-0.19309 0.402344,-0.43359 v -59.125 c 0,-0.2405 -0.179604,-0.43359 -0.402344,-0.43359 z" />
    <path
       id="rect5065-45-1-7-0"
       style="opacity:0.98999999;fill:#ffcc00;fill-opacity:1;stroke:#bbb000;stroke-width:0.008;stroke-miterlimit:4;stroke-dasharray:none;stroke-dashoffset:0;stroke-opacity:1"
       d="m 1290.4065,97.003745 c -0.2227,0 -0.4023,0.19309 -0.4023,0.43359 v 59.125005 c 0,0.2405 0.1796,0.43359 0.4023,0.43359 h 49.1876 c 0.2227,0 0.4023,-0.19309 0.4023,-0.43359 V 97.437335 c 0,-0.2405 -0.1796,-0.43359 -0.4023,-0.43359 z"
       inkscape:connector-curvature="0" />
    <path
       id="rect5065-8-9-60-0-2"
       style="opacity:0.98999999;fill:#ffcc00;fill-opacity:1;stroke:#bbb000;stroke-width:0.008;stroke-miterlimit:4;stroke-dasharray:none;stroke-dashoffset:0;stroke-opacity:1"
       d="m 1410.4066,237.00375 c -0.2228,0 -0.4024,0.19309 -0.4024,0.43359 v 59.125 c 0,0.2405 0.1796,0.43359 0.4024,0.43359 h 49.1874 c 0.2228,0 0.4024,-0.19309 0.4024,-0.43359 v -59.125 c 0,-0.2405 -0.1796,-0.43359 -0.4024,-0.43359 z"
       inkscape:connector-curvature="0" />
    <path
       id="rect5065-8-5-8-2-7"
       style="opacity:0.98999999;fill:#ffcc00;fill-opacity:1;stroke:#bbb000;stroke-width:0.008;stroke-miterlimit:4;stroke-dasharray:none;stroke-dashoffset:0;stroke-opacity:1"
       d="m 1350.4065,97.003835 c -0.2228,0 -0.4024,0.19309 -0.4024,0.43359 v 59.125005 c 0,0.2405 0.1796,0.43359 0.4024,0.43359 h 49.1875 c 0.2227,0 0.4023,-0.19309 0.4023,-0.43359 V 97.437425 c 0,-0.2405 -0.1796,-0.43359 -0.4023,-0.43359 z"
       inkscape:connector-curvature="0" />
    <path
       id="rect5065-8-2-9-2-4"
       style="opacity:0.98999999;fill:#ffcc00;fill-opacity:1;stroke:#bbb000;stroke-width:0.008;stroke-miterlimit:4;stroke-dasharray:none;stroke-dashoffset:0;stroke-opacity:1"
       d="m 1410.4066,97.003745 c -0.2228,0 -0.4024,0.19309 -0.4024,0.43359 v 59.125005 c 0,0.2405 0.1796,0.43359 0.4024,0.43359 h 49.1874 c 0.2228,0 0.4024,-0.19309 0.4024,-0.43359 V 97.437335 c 0,-0.2405 -0.1796,-0.43359 -0.4024,-0.43359 z"
       inkscape:connector-curvature="0" />
    <path
       transform="translate(1410.0001,-9.000019e-5)"
       sodipodi:type="inkscape:offset"
       inkscape:radius="0"
       inkscape:original="M 0.40625 167.00391 C 0.18351 167.00391 0.00390625 167.197 0.00390625 167.4375 L 0.00390625 226.5625 C 0.00390625 226.803 0.18351 226.99609 0.40625 226.99609 L 49.59375 226.99609 C 49.81649 226.99609 49.996094 226.803 49.996094 226.5625 L 49.996094 167.4375 C 49.996094 167.197 49.81649 167.00391 49.59375 167.00391 L 0.40625 167.00391 z "
       style="opacity:0.98999999;fill:#ffcc00;fill-opacity:1;stroke:#bbb000;stroke-width:0.008;stroke-miterlimit:4;stroke-dasharray:none;stroke-dashoffset:0;stroke-opacity:1"
       id="rect5065-4-1-6-4-7"
       d="m 0.40625,167.00391 c -0.22274,0 -0.40234375,0.19309 -0.40234375,0.43359 v 59.125 c 0,0.2405 0.17960375,0.43359 0.40234375,0.43359 h 49.1875 c 0.22274,0 0.402344,-0.19309 0.402344,-0.43359 v -59.125 c 0,-0.2405 -0.179604,-0.43359 -0.402344,-0.43359 z" />
  </g>
</svg>
